<svg width="24" height="24" viewBox="0 0 24 24" fill="currentColor" xmlns="http://www.w3.org/2000/svg">
<path d="M13.4531 15.5953C13.4178 15.5604 13.3702 15.5408 13.3207 15.5408C13.2711 15.5408 13.2235 15.5604 13.1882 15.5953L10.4648 18.3187C9.20386 19.5796 7.07573 19.7132 5.68354 18.3187C4.28901 16.9242 4.42261 14.7984 5.68354 13.5375L8.40698 10.814C8.47964 10.7414 8.47964 10.6218 8.40698 10.5492L7.47417 9.61636C7.43893 9.58146 7.39134 9.56189 7.34175 9.56189C7.29215 9.56189 7.24457 9.58146 7.20933 9.61636L4.48589 12.3398C2.50308 14.3226 2.50308 17.5312 4.48589 19.5117C6.4687 21.4921 9.67729 21.4945 11.6578 19.5117L14.3812 16.7882C14.4539 16.7156 14.4539 16.596 14.3812 16.5234L13.4531 15.5953ZM19.514 4.48589C17.5312 2.50308 14.3226 2.50308 12.3421 4.48589L9.61636 7.20933C9.58146 7.24457 9.56189 7.29215 9.56189 7.34175C9.56189 7.39134 9.58146 7.43893 9.61636 7.47417L10.5468 8.40464C10.6195 8.47729 10.739 8.47729 10.8117 8.40464L13.5351 5.6812C14.796 4.42026 16.9242 4.28667 18.3164 5.6812C19.7109 7.07573 19.5773 9.20151 18.3164 10.4625L15.5929 13.1859C15.558 13.2211 15.5385 13.2687 15.5385 13.3183C15.5385 13.3679 15.558 13.4155 15.5929 13.4507L16.5257 14.3835C16.5984 14.4562 16.7179 14.4562 16.7906 14.3835L19.514 11.6601C21.4945 9.67729 21.4945 6.4687 19.514 4.48589V4.48589ZM14.2992 8.72573C14.2639 8.69084 14.2163 8.67126 14.1667 8.67126C14.1172 8.67126 14.0696 8.69084 14.0343 8.72573L8.72573 14.032C8.69084 14.0672 8.67126 14.1148 8.67126 14.1644C8.67126 14.214 8.69084 14.2616 8.72573 14.2968L9.65386 15.2249C9.72651 15.2976 9.84605 15.2976 9.9187 15.2249L15.2249 9.9187C15.2976 9.84605 15.2976 9.72651 15.2249 9.65386L14.2992 8.72573Z" />
</svg>
