<svg width="86" height="29" fill="none" xmlns="http://www.w3.org/2000/svg"><path d="M.922 2.278c.764-.4 1.57-.7 2.416-.901.847-.2 1.66-.3 2.441-.3 1.03 0 1.935.166 2.716.5.797.317 1.42.793 1.868 1.427.465.635.697 1.419.697 2.354 0 .784-.207 1.46-.622 2.028-.399.55-1.038.968-1.918 1.251 1.046.267 1.818.71 2.316 1.327.498.601.748 1.336.748 2.204 0 .95-.258 1.769-.773 2.453-.514.684-1.22 1.21-2.117 1.577-.88.35-1.885.526-3.014.526-.93 0-1.827-.142-2.69-.426a7.31 7.31 0 0 1-2.392-1.301L0 12.416l2.142-.55.474 1.727a3.91 3.91 0 0 0 1.37.777c.498.15 1.08.225 1.743.225 1.03 0 1.819-.209 2.367-.626.565-.417.847-1.018.847-1.803 0-.734-.24-1.301-.722-1.702-.465-.417-1.13-.626-1.993-.626H3.96V7.736h2.217c.747 0 1.304-.209 1.669-.626.382-.434.573-.993.573-1.677 0-.751-.266-1.302-.797-1.653-.532-.367-1.204-.55-2.018-.55-.448 0-.905.05-1.37.15a4.953 4.953 0 0 0-1.246.4l-.498 1.878-2.167-.476.598-2.904ZM19.18 4.807c1.196 0 2.218.242 3.065.726a4.749 4.749 0 0 1 1.993 2.053c.465.884.697 1.953.697 3.204 0 1.853-.515 3.305-1.544 4.357-1.03 1.035-2.433 1.552-4.21 1.552-1.163 0-2.176-.234-3.04-.701a4.82 4.82 0 0 1-1.967-2.028c-.449-.901-.673-1.961-.673-3.18 0-1.251.224-2.32.673-3.204.465-.901 1.12-1.586 1.968-2.053.863-.484 1.876-.726 3.039-.726Zm0 2.053c-1.046 0-1.843.342-2.39 1.026-.532.668-.798 1.636-.798 2.904 0 1.252.266 2.212.797 2.88.548.667 1.345 1.001 2.392 1.001 1.096 0 1.91-.334 2.44-1.001.549-.668.823-1.628.823-2.88 0-1.268-.274-2.236-.822-2.904-.532-.684-1.345-1.026-2.441-1.026ZM26.217 21.656v-1.978h2.092V7.636l-2.341-.776.648-2.053 3.462 1.202a7.266 7.266 0 0 1 1.719-.877c.614-.217 1.187-.325 1.719-.325 1.71 0 3.047.517 4.01 1.552.98 1.018 1.47 2.42 1.47 4.206 0 1.219-.232 2.295-.697 3.23a5.154 5.154 0 0 1-1.993 2.178c-.847.5-1.852.751-3.014.751a8.39 8.39 0 0 1-2.467-.35v3.304h2.093v1.978h-6.701Zm7.05-6.96c.996 0 1.777-.359 2.341-1.076.565-.718.847-1.728.847-3.03 0-1.218-.257-2.145-.772-2.779-.515-.634-1.27-.951-2.267-.951-.481 0-.963.083-1.445.25-.481.167-.872.392-1.17.676v6.41c.282.15.647.275 1.096.375.465.083.921.125 1.37.125ZM40.627 5.258h5.53v1.977h-.946V9.84h2.043l1.694-2.604h-1.27V5.258h5.729v1.977h-1.968l-2.367 3.505 2.367 3.53h2.092v2.003H49.97l-2.94-4.431h-1.818v2.428h.947v2.003h-5.53v-2.002h2.092V7.235h-2.093V5.258ZM55.516 5.233h5.68v2.002h-1.197v5.984l5.057-7.961 4.484-.025v2.002h-2.117v7.035h2.117v2.003h-5.68v-2.002h1.196V8.21L60 16.274h-4.484v-2.002h2.092V7.235h-2.092V5.233ZM71.766 5.233h5.68v2.002H76.25v5.984l5.056-7.961 4.484-.025v2.002h-2.117v7.035h2.117v2.003h-5.68v-2.002h1.197V8.21l-5.057 8.062h-4.484v-2.002h2.092V7.235h-2.092V5.233Zm7.224-1.628c-1.246 0-2.209-.317-2.89-.951A4.102 4.102 0 0 1 74.855.275L76.672 0c.05.534.257.976.623 1.327.382.334.946.5 1.694.5.78 0 1.353-.175 1.719-.525.382-.35.597-.785.647-1.302l1.819.275a3.922 3.922 0 0 1-1.246 2.379c-.68.634-1.66.951-2.94.951Z" fill="#56AAF7"/><path d="M44.599 29c-.743 0-1.384-.17-1.924-.508a3.359 3.359 0 0 1-1.239-1.405c-.29-.598-.435-1.284-.435-2.058 0-.788.147-1.479.442-2.072a3.306 3.306 0 0 1 1.253-1.384c.54-.334 1.174-.501 1.903-.501.747 0 1.39.17 1.93.508.54.333.953.8 1.239 1.397.29.594.436 1.278.436 2.052 0 .784-.145 1.474-.436 2.072a3.352 3.352 0 0 1-1.246 1.398c-.54.334-1.18.501-1.923.501Zm0-1.175c.775 0 1.351-.26 1.73-.78.378-.519.567-1.19.567-2.016 0-.849-.191-1.523-.574-2.024-.383-.505-.958-.758-1.723-.758-.522 0-.95.118-1.287.355a2.122 2.122 0 0 0-.755.98c-.166.418-.249.9-.249 1.447 0 .844.194 1.52.582 2.03.387.51.957.766 1.709.766ZM49.72 28.791v-7.51h6.125v7.51h-1.232v-6.335h-3.66v6.335H49.72ZM59.761 28.791v-6.384H57.16V21.28h6.435v1.127h-2.602v6.384h-1.232ZM71.022 21.28v7.511h-1.19v-5.535l-3.917 5.535h-1.017v-7.51h1.19v5.459l3.924-5.46h1.01ZM72.953 28.791l.007-7.51h1.245v3.616l3.135-3.616h1.598l-3.3 3.755 3.688 3.755h-1.723l-3.398-3.616v3.616h-1.252ZM82.139 29c-.558 0-1.027-.102-1.405-.306a2.175 2.175 0 0 1-.851-.82 2.243 2.243 0 0 1-.284-1.113c0-.395.074-.735.221-1.023.153-.292.365-.533.637-.723.272-.195.598-.348.976-.459.355-.097.752-.18 1.19-.25.443-.075.89-.142 1.342-.202.453-.06.875-.118 1.267-.174l-.443.258c.014-.668-.12-1.162-.401-1.482-.277-.32-.757-.48-1.44-.48-.452 0-.849.105-1.19.313-.337.204-.574.538-.713 1.002l-1.17-.355c.18-.658.53-1.175 1.046-1.55.516-.376 1.197-.564 2.041-.564.678 0 1.26.123 1.744.369.489.24.84.607 1.052 1.098.106.232.173.485.2.758.028.27.042.552.042.849v4.645h-1.094v-1.8l.256.166c-.28.607-.675 1.066-1.183 1.377-.503.31-1.116.466-1.84.466Zm.187-1.036c.442 0 .825-.08 1.148-.237.328-.162.59-.373.789-.633a2.08 2.08 0 0 0 .387-.862c.07-.232.107-.489.111-.772.01-.287.014-.508.014-.66l.43.187c-.402.056-.797.11-1.184.16-.388.051-.755.107-1.1.167a8.154 8.154 0 0 0-.935.202 3.033 3.033 0 0 0-.574.25 1.308 1.308 0 0 0-.429.397c-.106.157-.16.354-.16.59 0 .205.052.4.153.585.106.185.268.336.484.452.222.116.51.174.866.174Z" fill="#252626"/></svg>