<svg width="24" height="24" viewBox="0 0 24 24" fill="currentColor" xmlns="http://www.w3.org/2000/svg">
<g clip-path="url(#clip0_63_2299)">
<path fill-rule="evenodd" clip-rule="evenodd" d="M0.715852 22.2841L4.64113e-05 22.9999L0.707153 23.707L1.38621 23.028C2.08725 23.6337 3.00084 24 4 24H20C20.8492 24 21.6365 23.7354 22.2841 23.2841L23 24.0001L23.7072 23.293L23.028 22.6138C23.6337 21.9128 24 20.9992 24 20V4C24 3.00084 23.6337 2.08725 23.028 1.38621L23.7072 0.707031L23 -7.55191e-05L22.2841 0.715852C21.6365 0.264602 20.8492 0 20 0H4C3.00084 0 2.08725 0.366339 1.38621 0.972026L0.707153 0.292969L4.65512e-05 1.00008L0.715853 1.71588C0.264602 2.36348 0 3.15084 0 4V20C0 20.8492 0.264602 21.6365 0.715852 22.2841ZM2.09584 22.3183C2.61382 22.7443 3.27705 23 4 23H20C20.5722 23 21.1069 22.8398 21.5618 22.5619L11.7071 12.7071L2.09584 22.3183ZM11 12L1.43812 21.5618C1.16017 21.1069 1 20.5722 1 20V4C1 3.42784 1.16017 2.8931 1.43812 2.43815L11 12ZM12.4142 12L22.3183 21.9042C22.7443 21.3862 23 20.723 23 20V4C23 3.27705 22.7443 2.61382 22.3183 2.09584L12.4142 12ZM21.5618 1.43812L11.7071 11.2929L2.09584 1.68166C2.61382 1.25573 3.27705 1 4 1H20C20.5722 1 21.1069 1.16017 21.5618 1.43812Z" />
</g>
<defs>
<clipPath id="clip0_63_2299">
<rect width="24" height="24" rx="4" />
</clipPath>
</defs>
</svg>
