<svg width="24" height="24" viewBox="0 0 24 24" fill="currentColor" xmlns="http://www.w3.org/2000/svg">
<path fill-rule="evenodd" clip-rule="evenodd" d="M3 3C2.44772 3 2 3.44772 2 4C2 4.55228 2.44772 5 3 5H7C7.55228 5 8 4.55228 8 4C8 3.44772 7.55228 3 7 3H3ZM3 8C2.44772 8 2 8.44771 2 9C2 9.55229 2.44772 10 3 10H7C7.55228 10 8 9.55229 8 9C8 8.44771 7.55228 8 7 8H3ZM2 14C2 13.4477 2.44772 13 3 13H7C7.55228 13 8 13.4477 8 14C8 14.5523 7.55228 15 7 15H3C2.44772 15 2 14.5523 2 14ZM3 18C2.44772 18 2 18.4477 2 19C2 19.5523 2.44772 20 3 20H7C7.55228 20 8 19.5523 8 19C8 18.4477 7.55228 18 7 18H3ZM10 4C10 3.44772 10.4477 3 11 3H21C21.5523 3 22 3.44772 22 4C22 4.55228 21.5523 5 21 5H11C10.4477 5 10 4.55228 10 4ZM11 8C10.4477 8 10 8.44771 10 9C10 9.55229 10.4477 10 11 10H21C21.5523 10 22 9.55229 22 9C22 8.44771 21.5523 8 21 8H11ZM10 14C10 13.4477 10.4477 13 11 13H21C21.5523 13 22 13.4477 22 14C22 14.5523 21.5523 15 21 15H11C10.4477 15 10 14.5523 10 14ZM11 18C10.4477 18 10 18.4477 10 19C10 19.5523 10.4477 20 11 20H21C21.5523 20 22 19.5523 22 19C22 18.4477 21.5523 18 21 18H11Z" />
</svg>
