<svg width="16" height="16" viewBox="0 0 16 16" fill="currentColor" xmlns="http://www.w3.org/2000/svg">
<g clip-path="url(#clip0_63_2318)">
<path fill-rule="evenodd" clip-rule="evenodd" d="M0.715853 14.2841L4.68118e-05 14.9999L0.707154 15.707L1.38621 15.028C2.08725 15.6337 3.00084 16 4 16H12C12.8492 16 13.6365 15.7354 14.2841 15.2841L15 16.0001L15.7072 15.293L15.028 14.6138C15.6337 13.9127 16 12.9992 16 12V4C16 3.00084 15.6337 2.08725 15.028 1.38621L15.7072 0.707031L15 -7.55191e-05L14.2841 0.715853C13.6365 0.264602 12.8492 0 12 0H4C3.00084 0 2.08725 0.366339 1.38621 0.972026L0.707153 0.292969L4.65512e-05 1.00008L0.715853 1.71588C0.264602 2.36348 0 3.15084 0 4V12C0 12.8492 0.264602 13.6365 0.715853 14.2841ZM2.09584 14.3183C2.61382 14.7443 3.27705 15 4 15H12C12.5722 15 13.1069 14.8398 13.5618 14.5619L7.70708 8.70711L2.09584 14.3183ZM6.99997 8L1.43812 13.5618C1.16017 13.1069 1 12.5722 1 12V4C1 3.42784 1.16017 2.8931 1.43812 2.43815L6.99997 8ZM8.41418 8L14.3183 13.9042C14.7443 13.3862 15 12.723 15 12V4C15 3.27705 14.7443 2.61382 14.3183 2.09584L8.41418 8ZM13.5618 1.43812L7.70708 7.29289L2.09584 1.68166C2.61382 1.25573 3.27705 1 4 1H12C12.5722 1 13.1069 1.16017 13.5618 1.43812Z" />
</g>
<defs>
<clipPath id="clip0_63_2318">
<rect width="16" height="16" rx="4" />
</clipPath>
</defs>
</svg>
