<svg width="16" height="16" viewBox="0 0 16 16" fill="currentColor" xmlns="http://www.w3.org/2000/svg">
<path fill-rule="evenodd" clip-rule="evenodd" d="M2.50049 14.5991L1.99968 15.4647C2.5881 15.8051 3.27129 16 4 16H6.66667V15H4C3.45181 15 2.94078 14.8539 2.50049 14.5991ZM9.33333 15V16H12C12.7287 16 13.4119 15.8051 14.0003 15.4647L13.4995 14.5991C13.0592 14.8539 12.5482 15 12 15H9.33333ZM15 6.66667H16V4C16 3.27129 15.8051 2.5881 15.4647 1.99968L14.5991 2.50049C14.8539 2.94078 15 3.45181 15 4V6.66667ZM4 0H6.66667V1H4C3.45181 1 2.94078 1.14612 2.50049 1.40087L1.99968 0.535313C2.5881 0.194859 3.27129 0 4 0ZM1 9.33333H0V12C0 12.7287 0.194859 13.4119 0.535313 14.0003L1.40087 13.4995C1.14612 13.0592 1 12.5482 1 12V9.33333ZM1 6.66667H0V4C0 3.27129 0.194859 2.5881 0.535314 1.99968L1.40087 2.50049C1.14612 2.94078 1 3.45181 1 4V6.66667ZM9.33333 1V0H12C12.7287 0 13.4119 0.194859 14.0003 0.535313L13.4995 1.40087C13.0592 1.14612 12.5482 1 12 1H9.33333ZM15 9.33333H16V12C16 12.7287 15.8051 13.4119 15.4647 14.0003L14.5991 13.4995C14.8539 13.0592 15 12.5482 15 12V9.33333ZM9.17773 8.63867C9.40039 8.79883 9.51172 9.02539 9.51172 9.31836C9.51172 9.5957 9.38672 9.81836 9.13672 9.98633C8.89062 10.1504 8.5625 10.2324 8.15234 10.2324C7.70703 10.2324 7.34766 10.127 7.07422 9.91602C6.80469 9.70117 6.66016 9.41211 6.64062 9.04883H5.55664C5.55664 9.42383 5.66602 9.77344 5.88477 10.0977C6.10742 10.418 6.41406 10.668 6.80469 10.8477C7.19531 11.0273 7.64453 11.1172 8.15234 11.1172C8.875 11.1172 9.46289 10.9473 9.91602 10.6074C10.3691 10.2637 10.5957 9.80859 10.5957 9.24219C10.5957 8.90234 10.5137 8.61523 10.3496 8.38086C10.1895 8.14258 9.94141 7.93945 9.60547 7.77148C9.26953 7.60352 8.83008 7.45898 8.28711 7.33789C7.74805 7.2168 7.375 7.08984 7.16797 6.95703C6.96094 6.82422 6.85742 6.62695 6.85742 6.36523C6.85742 6.08789 6.96875 5.86328 7.19141 5.69141C7.41406 5.51953 7.72266 5.43359 8.11719 5.43359C8.5 5.43359 8.81641 5.54102 9.06641 5.75586C9.32031 5.9707 9.44727 6.22656 9.44727 6.52344H10.5371C10.5371 5.94531 10.3125 5.4707 9.86328 5.09961C9.41797 4.72852 8.83594 4.54297 8.11719 4.54297C7.43359 4.54297 6.87109 4.72266 6.42969 5.08203C5.99219 5.44141 5.77344 5.88086 5.77344 6.40039C5.77344 6.71289 5.84961 6.98242 6.00195 7.20898C6.1582 7.43555 6.39648 7.63086 6.7168 7.79492C7.04102 7.95898 7.47656 8.09961 8.02344 8.2168C8.57422 8.33398 8.95898 8.47461 9.17773 8.63867Z" />
</svg>
