<svg width="24" height="24" viewBox="0 0 24 24" fill="currentColor" xmlns="http://www.w3.org/2000/svg">
<path fill-rule="evenodd" clip-rule="evenodd" d="M2.50049 22.5991L1.99968 23.4647C2.5881 23.8051 3.27129 24 4 24H5.77778V23H4C3.45181 23 2.94078 22.8539 2.50049 22.5991ZM18.2222 23V24H20C20.7287 24 21.4119 23.8051 22.0003 23.4647L21.4995 22.5991C21.0592 22.8539 20.5482 23 20 23H18.2222ZM23 5.77778H24V4C24 3.27129 23.8051 2.5881 23.4647 1.99968L22.5991 2.50049C22.8539 2.94078 23 3.45181 23 4V5.77778ZM4 0H5.77778V1H4C3.45181 1 2.94078 1.14612 2.50049 1.40087L1.99968 0.535313C2.5881 0.194859 3.27129 0 4 0ZM1 18.2222H0V20C0 20.7287 0.194859 21.4119 0.535313 22.0003L1.40087 21.4995C1.14612 21.0592 1 20.5482 1 20V18.2222ZM1 16.4444H0V12.8889H1V16.4444ZM1 11.1111H0V7.55556H1V11.1111ZM1 5.77778H0V4C0 3.27129 0.194859 2.5881 0.535314 1.99968L1.40087 2.50049C1.14612 2.94078 1 3.45181 1 4V5.77778ZM7.55556 1V0H11.1111V1H7.55556ZM12.8889 1V0H16.4444V1H12.8889ZM18.2222 1V0H20C20.7287 0 21.4119 0.194859 22.0003 0.535314L21.4995 1.40087C21.0592 1.14612 20.5482 1 20 1H18.2222ZM23 7.55556H24V11.1111H23V7.55556ZM23 12.8889H24V16.4444H23V12.8889ZM23 18.2222H24V20C24 20.7287 23.8051 21.4119 23.4647 22.0003L22.5991 21.4995C22.8539 21.0592 23 20.5482 23 20V18.2222ZM16.4444 23V24H12.8889V23H16.4444ZM11.1111 23V24H7.55556V23H11.1111ZM9.05469 9.82031L9.02539 9.11719H8V15.457H9.08398V10.8281C9.3457 10.2227 9.83203 9.91992 10.543 9.91992C11.4453 9.91992 11.8965 10.3809 11.8965 11.3027V15.457H12.9863V11.25C13.0293 10.8438 13.1836 10.5215 13.4492 10.2832C13.7148 10.041 14.0488 9.91992 14.4512 9.91992C14.9395 9.91992 15.2871 10.0332 15.4941 10.2598C15.7012 10.4824 15.8047 10.8203 15.8047 11.2734V15.457H16.8887V11.209C16.8652 9.73633 16.1582 9 14.7676 9C14.3066 9 13.9062 9.09375 13.5664 9.28125C13.2305 9.46875 12.957 9.71484 12.7461 10.0195C12.4258 9.33984 11.8223 9 10.9355 9C10.1465 9 9.51953 9.27344 9.05469 9.82031Z" />
</svg>
